<?xml version="1.0" encoding="utf-8"?>
<!-- Generator: Adobe Illustrator 24.2.3, SVG Export Plug-In . SVG Version: 6.00 Build 0)  -->
<svg version="1.1" id="Layer_1" xmlns="http://www.w3.org/2000/svg" xmlns:xlink="http://www.w3.org/1999/xlink" x="0px" y="0px"
	 viewBox="0 0 100 100" style="enable-background:new 0 0 100 100;" xml:space="preserve">
<g>
	<path d="M14.95,94.54c2.19-3.1,4.63-5.24,2.32-8.63c-0.33-0.49,0.51-1.78,0.81-2.71c2.3-7.09,4.55-14.2,6.9-21.27
		c1.03-3.11-0.64-3.86-3.2-3.98c-0.43-0.02-0.87,0.05-1.3,0.08c-5,0.39-5.35,0.09-5.89-5.14c2.4,0,4.81,0,7.22,0
		c0.02-0.21,0.03-0.41,0.05-0.62c-1.94-0.11-4.21,0.36-5.71-0.51c-1.32-0.76-1.77-3.02-2.98-5.33c3.78-0.65,6.71-1.33,9.67-1.6
		c2.53-0.23,3.37-1.35,3.22-3.78C25.33,29.76,21.59,19.63,14.4,10.9c-1.66-2.01-1.7-2.99,0.77-3.99c1.29-0.52,2.42-1.44,3.64-2.14
		c5.55-3.18,8.73-2.47,12.13,3.01c6.07,9.78,10.49,20.19,10.98,31.89c0.1,2.4,1.12,3.42,3.31,3.36c3.79-0.11,7.6-0.17,11.34-0.71
		c0.79-0.11,1.64-2.12,1.88-3.36c1.68-8.48,2.83-17.09,4.95-25.45c0.92-3.61,3.49-6.93,5.81-10c0.84-1.11,3.12-1.22,4.79-1.6
		c0.8-0.19,1.71-0.04,2.55,0.09c3.12,0.46,6.24,0.97,10.29,1.6c-1.23,2.94-2,5.48-3.28,7.73c-4.92,8.7-7.82,18.05-9.65,27.81
		c-0.41,2.17-0.11,3.48,2.49,3.75c2.01,0.21,3.96,0.97,6.02,1.5c-1.1,0.31-2.16,0.62-3.23,0.93c-0.09,0.28-0.18,0.55-0.27,0.83
		c2.2,1.17,4.4,2.33,7.13,3.78c-1.16,0.53-1.79,0.82-2.52,1.16c0.37,0.6,0.73,1.19,1.24,2.02c-1.22,0.17-2.15,0.29-3.55,0.49
		c0.79,0.05,1.2-0.03,1.46,0.12c0.66,0.38,1.25,0.87,1.87,1.31c-0.57,0.5-1.07,1.29-1.73,1.45c-2.2,0.53-4.45,1.06-6.7,1.17
		c-2.31,0.12-2.95,1.12-2.83,3.26c0.38,6.67,3.03,12.59,5.91,18.43c1.19,2.42,2.74,4.67,4.15,6.98c1.73,2.82,1.16,4.68-1.86,6.18
		c-1.35,0.67-2.69,1.39-3.95,2.21c-3.19,2.1-5.47,2.05-7.61-1.07c-2.32-3.37-4.45-6.98-5.98-10.77c-2.93-7.21-5.88-14.49-6.04-22.47
		c-0.04-1.83-0.9-2.53-2.65-2.41c-3.79,0.27-7.6,0.33-11.35,0.87c-0.92,0.13-2.21,1.69-2.34,2.71c-0.93,7.71-3.05,15.07-6.38,22.04
		c-2.01,4.19-4.41,8.2-6.75,12.23c-1.24,2.13-3.07,2.93-5.53,1.89C20.39,96.65,17.83,95.68,14.95,94.54z M25.46,90.87
		c0.22-0.43,0.43-0.86,0.65-1.3c0.05-0.06,0.09-0.13,0.14-0.19c-0.03,0.08-0.07,0.15-0.1,0.23c-0.22,0.43-0.44,0.86-0.66,1.3
		c-0.2,0.47-0.4,0.94-0.6,1.42c-0.51,0.56-1.02,1.11-1.53,1.67c0.17,0.12,0.35,0.24,0.52,0.35c0.32-0.69,0.65-1.37,0.97-2.06
		C25.06,91.81,25.26,91.34,25.46,90.87z M19.29,49.96c-0.02-0.16-0.04-0.32-0.06-0.47c-0.65,0.06-1.29,0.13-1.94,0.19
		c0.02,0.19,0.04,0.37,0.07,0.56C18,50.14,18.64,50.05,19.29,49.96z M70.36,71.83C70.08,71.34,70.22,71.59,70.36,71.83
		C70.38,71.53,70.41,71.23,70.36,71.83z M69.56,68.73l-0.18-0.02l0.08,0.23L69.56,68.73z"/>
</g>
</svg>
